HIERARCHY
ROOT Hips
{
	OFFSET 0.000000 0.000000 0.000000
	CHANNELS 6 Xposition Yposition Zposition Xrotation Yrotation Zrotation
	JOINT LeftUpLeg_virtual
	{
		OFFSET 0.000000 0.000000 0.000000
		CHANNELS 3 Xrotation Yrotation Zrotation
		JOINT LeftUpLeg
		{
			OFFSET 13.026900 -6.336304 -1.092800
			CHANNELS 3 Xrotation Yrotation Zrotation
			JOINT LeftLeg
			{
				OFFSET 0.524474 -46.096886 9.782700
				CHANNELS 3 Xrotation Yrotation Zrotation
				JOINT LeftFoot
				{
					OFFSET -0.524474 -53.427422 -12.948200
					CHANNELS 3 Xrotation Yrotation Zrotation
					JOINT LeftToeBase
					{
						OFFSET 0.192200 -14.009700 16.364100
						CHANNELS 3 Xrotation Yrotation Zrotation
						JOINT LeftToe_End
						{
							OFFSET -1.784700 -0.561700 9.474800
							CHANNELS 3 Xrotation Yrotation Zrotation
							End Site
							{
								OFFSET 0 0 0
							}
						}
					}
				}
			}
		}
	}
	JOINT RightUpLeg_virtual
	{
		OFFSET 0.000000 0.000000 0.000000
		CHANNELS 3 Xrotation Yrotation Zrotation
		JOINT RightUpLeg
		{
			OFFSET -12.883000 -6.336304 -1.092800
			CHANNELS 3 Xrotation Yrotation Zrotation
			JOINT RightLeg
			{
				OFFSET -0.524587 -46.096825 9.782800
				CHANNELS 3 Xrotation Yrotation Zrotation
				JOINT RightFoot
				{
					OFFSET 0.524587 -53.427383 -12.948300
					CHANNELS 3 Xrotation Yrotation Zrotation
					JOINT RightToeBase
					{
						OFFSET -0.192200 -14.009700 16.364100
						CHANNELS 3 Xrotation Yrotation Zrotation
						JOINT RightToe_End
						{
							OFFSET 1.784700 -0.561700 9.474800
							CHANNELS 3 Xrotation Yrotation Zrotation
							End Site
							{
								OFFSET 0 0 0
							}
						}
					}
				}
			}
		}
	}
	JOINT Spine_virtual
	{
		OFFSET 0.000000 0.000000 0.000000
		CHANNELS 3 Xrotation Yrotation Zrotation
		JOINT Spine
		{
			OFFSET 0.072000 7.257294 -0.789700
			CHANNELS 3 Xrotation Yrotation Zrotation
			JOINT Spine1
			{
				OFFSET 0.000000 12.508769 -0.658067
				CHANNELS 3 Xrotation Yrotation Zrotation
				JOINT Spine1_split
				{
					OFFSET 0.000000 12.508769 -0.658067
					CHANNELS 3 Xrotation Yrotation Zrotation
					JOINT Spine2
					{
						OFFSET 0.000000 12.508769 -0.658067
						CHANNELS 3 Xrotation Yrotation Zrotation
						JOINT Neck_virtual
						{
							OFFSET 0.000000 0.000000 0.000000
							CHANNELS 3 Xrotation Yrotation Zrotation
							JOINT Neck
							{
								OFFSET 0.000000 14.033295 7.520400
								CHANNELS 3 Xrotation Yrotation Zrotation
								JOINT Head
								{
									OFFSET 0.000000 8.198502 5.703100
									CHANNELS 3 Xrotation Yrotation Zrotation
									JOINT HeadTop_End
									{
										OFFSET 0.000000 17.760803 13.332701
										CHANNELS 3 Xrotation Yrotation Zrotation
										End Site
										{
											OFFSET 0 0 0
										}
									}
								}
							}
						}
						JOINT LeftShoulder_virtual
						{
							OFFSET 0.000000 0.000000 0.000000
							CHANNELS 3 Xrotation Yrotation Zrotation
							JOINT LeftShoulder
							{
								OFFSET 6.292450 5.785301 -0.669000
								CHANNELS 3 Xrotation Yrotation Zrotation
								JOINT LeftShoulder_split
								{
									OFFSET 6.292450 5.785301 -0.669000
									CHANNELS 3 Xrotation Yrotation Zrotation
									JOINT LeftArm
									{
										OFFSET 13.907140 -6.093903 1.965100
										CHANNELS 3 Xrotation Yrotation Zrotation
										JOINT LeftForeArm
										{
											OFFSET 34.140198 0.000000 0.000000
											CHANNELS 3 Xrotation Yrotation Zrotation
											JOINT LeftHand
											{
												OFFSET 40.960209 0.000000 0.000000
												CHANNELS 3 Xrotation Yrotation Zrotation
												End Site
												{
													OFFSET 0 0 0
												}
											}
										}
									}
								}
							}
						}
						JOINT RightShoulder_virtual
						{
							OFFSET 0.000000 0.000000 0.000000
							CHANNELS 3 Xrotation Yrotation Zrotation
							JOINT RightShoulder
							{
								OFFSET -6.292450 5.785301 -0.669000
								CHANNELS 3 Xrotation Yrotation Zrotation
								JOINT RightShoulder_split
								{
									OFFSET -6.292450 5.785301 -0.669000
									CHANNELS 3 Xrotation Yrotation Zrotation
									JOINT RightArm
									{
										OFFSET -13.907140 -6.093903 1.965100
										CHANNELS 3 Xrotation Yrotation Zrotation
										JOINT RightForeArm
										{
											OFFSET -34.140198 0.000000 0.000000
											CHANNELS 3 Xrotation Yrotation Zrotation
											JOINT RightHand
											{
												OFFSET -40.960209 0.000000 0.000000
												CHANNELS 3 Xrotation Yrotation Zrotation
												End Site
												{
													OFFSET 0 0 0
												}
											}
										}
									}
								}
							}
						}
					}
				}
			}
		}
	}
}
MOTION
Frames: 10
Frame Time: 0.03333333
11.047883 92.924324 -4.289421 0.000000 0.000000 0.000000 26.299179 -83.801408 28.700489 -33.321303 -6.696525 20.176451 47.326295 -6.965670 11.835107 -14.458092 -6.482905 -24.627225 -1.893074 0.325516 -1.690983 0.000000 0.000000 0.000000 18.249499 -82.701843 21.920092 -16.610528 6.931030 -26.640890 42.688016 8.361222 -10.136009 -19.928902 -0.309972 27.170390 -12.023052 0.960766 0.919433 0.000000 0.000000 0.000000 24.787569 -78.841365 26.455361 1.830323 5.142837 2.832022 0.333779 3.485315 1.153324 1.440523 -0.944107 0.757045 0.000000 0.000000 0.000000 0.885926 2.964981 0.976879 -3.502845 7.438255 -1.341536 2.618158 41.465132 -5.367870 0.000000 0.000000 0.000000 1.004661 3.408976 1.113316 1.449576 11.352807 -10.354499 -3.489858 -2.026411 -2.158794 -9.900196 10.591260 -65.222849 -178.907817 -63.322588 -176.802589 0.000000 0.000000 0.000000 1.881398 3.588572 0.663165 1.348565 9.384636 9.983479 0.654491 3.333051 2.211697 -13.231182 34.503408 48.132473 -179.640177 71.039554 179.289133 0.000000 0.000000 0.000000 
10.947619 92.647873 -4.090576 0.000000 0.000000 0.000000 19.222391 -83.523802 21.341302 -33.883315 -6.073361 19.882740 47.514860 -7.368199 12.356251 -14.407338 -7.614431 -23.613117 -2.426029 0.382360 -1.742327 0.000000 0.000000 0.000000 12.597919 -81.227929 15.736612 -15.780443 5.405549 -26.211343 43.482285 6.737692 -9.919870 -20.131142 -2.246072 26.228297 -11.593078 1.040105 1.357828 0.000000 0.000000 0.000000 22.221310 -78.090372 23.387579 1.544983 5.321061 2.863643 0.264236 3.593465 1.121667 1.571452 -1.596396 0.805032 0.000000 0.000000 0.000000 0.817365 3.113551 0.936174 -2.801575 6.923713 -1.390914 2.872075 39.984890 -4.983619 0.000000 0.000000 0.000000 1.018969 3.458669 1.123125 1.303931 11.070435 -9.234803 -2.834580 -1.644130 -2.997912 -8.080117 8.135487 -65.530153 -179.521455 -62.889732 -177.348184 0.000000 0.000000 0.000000 1.596140 3.686669 0.677629 1.354363 8.878034 9.168663 0.455367 3.975727 2.253958 -12.335293 33.134627 48.103889 -178.767771 69.770922 178.352099 0.000000 0.000000 0.000000 
10.863982 95.722900 -4.206017 0.000000 0.000000 0.000000 11.083779 -80.716170 12.893473 -33.257619 -4.863978 18.800973 43.024109 -8.812599 12.160654 -11.529188 -10.058324 -23.305116 -2.667136 0.352542 -1.655383 0.000000 0.000000 0.000000 8.879616 -78.059008 11.645293 -15.422977 3.585998 -25.225791 42.816018 5.323095 -9.488828 -15.387822 -2.927042 25.496328 -15.376264 0.720062 2.386044 0.000000 0.000000 0.000000 17.671554 -76.108033 18.480205 1.105040 5.264431 2.838915 0.068790 3.617015 0.995844 1.387789 -2.316630 0.750398 0.000000 0.000000 0.000000 0.737918 3.153751 0.813737 -2.007634 6.479858 -1.429286 3.051614 37.810233 -4.175181 0.000000 0.000000 0.000000 0.900129 3.426383 1.023868 1.126280 10.276771 -7.801396 -1.809880 -1.057484 -3.458043 -6.303048 4.255987 -64.041486 -179.949352 -62.263827 -177.878617 0.000000 0.000000 0.000000 1.236890 3.640377 0.602296 1.301108 8.333246 8.260091 0.142578 4.407834 2.121586 -10.778553 30.621521 47.515539 -178.456478 67.446759 177.981616 0.000000 0.000000 0.000000 
10.833588 101.314690 -4.503769 0.000000 0.000000 0.000000 7.038987 -75.824525 8.612715 -31.294984 -3.064056 17.290699 34.915271 -10.535301 10.888422 -6.182261 -13.017850 -23.118344 -2.564890 0.239296 -1.406950 0.000000 0.000000 0.000000 6.690465 -73.804265 9.306162 -15.621472 1.886364 -23.935836 41.236676 4.564360 -8.978382 -7.337929 -2.236326 25.413594 -21.527431 -0.064978 3.616063 0.000000 0.000000 0.000000 13.061816 -72.920602 13.848871 0.675069 5.000969 2.745005 -0.158130 3.553770 0.832939 0.990414 -2.552305 0.712307 0.000000 0.000000 0.000000 0.620964 3.089018 0.665747 -1.297812 6.128035 -1.547733 3.085464 35.159048 -3.125537 0.000000 0.000000 0.000000 0.678550 3.326160 0.875755 0.987658 9.076347 -6.454862 -0.767265 -0.475194 -3.591519 -4.808475 -0.367014 -61.287561 179.903044 -61.684483 -178.210646 0.000000 0.000000 0.000000 0.915058 3.485192 0.467666 1.192846 7.817836 7.359298 -0.345835 4.509134 1.814944 -8.718440 27.284944 46.208491 -178.628558 65.097420 178.087921 0.000000 0.000000 0.000000 
10.746775 108.012878 -5.092800 0.000000 0.000000 0.000000 5.600893 -70.124541 7.005509 -28.373596 -0.611217 15.733865 25.739073 -11.045615 8.765370 -0.169620 -14.782966 -21.841751 -1.937697 0.068449 -1.204780 0.000000 0.000000 0.000000 5.177764 -68.734926 7.923991 -16.137113 0.149094 -22.347730 39.090675 3.913303 -8.412052 0.459404 -0.864857 24.982788 -26.231514 -1.056619 4.574471 0.000000 0.000000 0.000000 9.177301 -68.855362 10.293789 0.419616 4.552089 2.594690 -0.280902 3.407773 0.681423 0.552654 -2.297106 0.712834 0.000000 0.000000 0.000000 0.465723 2.926962 0.538146 -0.862329 5.823384 -1.785404 2.958049 32.359619 -2.058444 0.000000 0.000000 0.000000 0.477824 3.162421 0.722213 0.957710 7.601910 -5.672879 -0.159596 -0.124707 -3.401581 -3.653660 -4.997026 -58.070917 -179.981249 -61.389112 -178.371620 0.000000 0.000000 0.000000 0.744120 3.279917 0.350754 1.059716 7.467971 6.597506 -0.757175 4.405507 1.279692 -6.616847 23.559057 44.447521 -179.066837 63.567778 178.478526 0.000000 0.000000 0.000000 
10.650237 114.248695 -5.640030 0.000000 0.000000 0.000000 4.961948 -64.727777 6.350451 -24.683228 2.448059 14.218123 17.660349 -9.491239 6.636700 3.921060 -13.981598 -18.898461 -1.000032 -0.112545 -1.179268 0.000000 0.000000 0.000000 3.782032 -63.496758 6.911687 -16.977747 -1.335865 -20.554590 36.805301 2.978591 -7.753908 5.132625 0.216236 23.076971 -25.850488 -1.711059 5.058301 0.000000 0.000000 0.000000 6.310097 -64.288486 7.974460 0.437647 3.959687 2.339536 -0.196431 3.180929 0.565424 0.602345 -1.857822 0.668736 0.000000 0.000000 0.000000 0.315995 2.663356 0.460555 -0.871725 5.604122 -2.169666 2.599902 29.560987 -1.089791 0.000000 0.000000 0.000000 0.389953 2.913895 0.589021 1.024403 6.041829 -5.618662 -0.164067 -0.043095 -3.018107 -3.060172 -8.908336 -55.306214 -179.784827 -61.805214 -178.498333 0.000000 0.000000 0.000000 0.779529 3.039489 0.275371 0.922519 7.306224 6.068986 -1.094461 4.187588 0.660263 -4.908002 19.931149 42.539695 -179.575140 63.427049 178.991090 0.000000 0.000000 0.000000 
10.512239 118.862686 -6.021278 0.000000 0.000000 0.000000 4.564974 -60.279042 6.200904 -20.899433 5.592286 13.075395 12.524032 -6.779986 5.104227 4.717633 -10.990785 -15.986939 -0.478690 -0.223760 -1.180964 0.000000 0.000000 0.000000 2.668188 -58.205486 6.203234 -18.113207 -2.264374 -18.942112 34.548555 1.805974 -6.954998 6.032421 1.008680 19.900970 -20.380381 -1.695837 5.069707 0.000000 0.000000 0.000000 4.470156 -59.426307 6.742216 0.640637 3.277101 1.941295 0.141268 2.852812 0.459940 1.018580 -1.276202 0.634287 0.000000 0.000000 0.000000 0.256649 2.320210 0.428347 -1.233743 5.346835 -2.608936 2.071761 26.910664 -0.336427 0.000000 0.000000 0.000000 0.462922 2.572491 0.474230 1.125122 4.542845 -6.234618 -0.805974 -0.121616 -2.473282 -3.264908 -11.627463 -53.505520 -179.620970 -63.013064 -178.692543 0.000000 0.000000 0.000000 0.965992 2.768324 0.233961 0.836277 7.272191 5.866062 -1.262301 3.957520 -0.023283 -3.886485 16.786025 40.976955 179.958409 64.823249 179.541330 0.000000 0.000000 0.000000 
10.310240 121.600143 -6.344891 0.000000 0.000000 0.000000 4.267326 -56.907825 6.293089 -18.084956 8.156506 12.409180 11.512899 -3.855696 4.140161 2.851045 -6.934952 -13.947695 -0.789936 -0.256379 -1.304219 0.000000 0.000000 0.000000 2.031878 -53.404375 5.846118 -19.496341 -2.361682 -17.734127 31.707565 0.657433 -6.222262 5.053211 2.087132 16.661143 -12.846429 -1.113932 4.419792 0.000000 0.000000 0.000000 3.645861 -54.468713 6.236725 0.864625 2.509776 1.392477 0.616176 2.439185 0.322130 1.445027 -0.998661 0.488501 0.000000 0.000000 0.000000 0.336285 1.911172 0.375939 -1.854412 5.049231 -2.958347 1.462563 24.394466 0.231044 0.000000 0.000000 0.000000 0.692202 2.147439 0.337212 1.197035 3.213654 -7.184701 -1.861498 -0.262556 -1.799767 -4.396784 -13.170687 -52.829840 -179.595945 -64.609539 -179.043478 0.000000 0.000000 0.000000 1.237305 2.446065 0.182579 0.781418 7.332821 6.001672 -1.202591 3.800754 -0.597004 -3.676447 14.275242 40.143559 179.551289 67.332947 -179.877075 0.000000 0.000000 0.000000 
10.121203 122.462860 -6.491035 0.000000 0.000000 0.000000 3.807803 -53.770937 6.144551 -16.920120 9.531363 12.369334 14.847610 -1.104539 3.499732 0.182162 -2.811463 -12.639714 -1.299212 -0.252532 -1.645406 0.000000 0.000000 0.000000 1.994100 -49.302218 5.688582 -21.114464 -1.243055 -17.119681 28.174399 0.500285 -5.676895 4.013591 4.057803 14.751964 -6.365248 -0.273875 3.191884 0.000000 0.000000 0.000000 3.694842 -49.459374 6.144410 0.939941 1.703305 0.711849 1.098002 1.966996 0.134121 1.751461 -0.978154 0.258972 0.000000 0.000000 0.000000 0.583691 1.455081 0.257883 -2.557383 4.702386 -3.101999 0.828658 21.862459 0.665862 0.000000 0.000000 0.000000 0.967813 1.678329 0.153711 1.189354 2.117800 -8.045620 -3.008086 -0.479044 -1.134951 -6.401594 -13.864575 -53.131140 -179.781685 -65.988377 -179.545620 0.000000 0.000000 0.000000 1.493403 2.048935 0.050326 0.739964 7.321608 6.407573 -1.036273 3.658610 -0.909337 -4.282883 12.362887 40.120528 179.294324 70.222391 -179.376381 0.000000 0.000000 0.000000 
9.754756 121.706558 -6.711632 0.000000 0.000000 0.000000 3.507909 -49.884263 5.788095 -18.041631 9.297113 13.246150 22.030604 0.737459 3.019212 -1.147348 0.507432 -12.733204 -1.656315 -0.202960 -2.230457 0.000000 0.000000 0.000000 2.437839 -45.838236 5.537971 -22.467427 1.053491 -17.042924 23.883351 1.673580 -5.271568 3.575115 7.180529 14.910866 -3.320111 0.550177 1.716943 0.000000 0.000000 0.000000 4.371004 -44.533817 6.098027 0.753790 0.922480 0.004849 1.457495 1.467390 -0.103031 1.603714 -0.958600 0.233374 0.000000 0.000000 0.000000 0.949768 0.996953 0.045529 -3.128430 4.279820 -2.932280 0.298538 19.255106 1.022321 0.000000 0.000000 0.000000 1.231661 1.212213 -0.075831 1.101526 1.254239 -8.536817 -4.038874 -0.832182 -0.611600 -8.895861 -14.382123 -54.008799 179.963218 -66.544306 179.929900 0.000000 0.000000 0.000000 1.697804 1.588971 -0.167919 0.704069 7.184510 6.983984 -0.725707 3.519000 -0.986270 -5.616767 10.879288 40.831096 179.281251 72.528775 -179.105045 0.000000 0.000000 0.000000 
